<svg width="1293" height="1197" viewBox="0 0 1293 1197" fill="none" xmlns="http://www.w3.org/2000/svg">
<g clip-path="url(#clip0_342_42)">
<path d="M770 0H30C13.4315 0 0 13.4315 0 30V770C0 786.569 13.4315 800 30 800H770C786.569 800 800 786.569 800 770V30C800 13.4315 786.569 0 770 0Z" fill="#EFF1F3"/>
<path fill-rule="evenodd" clip-rule="evenodd" d="M221.669 256.544C221.735 246.981 229.466 239.243 239.029 239.167H554.309C563.899 239.167 571.669 246.954 571.669 256.544V536.789C571.602 546.352 563.871 554.09 554.309 554.166H239.029C229.439 554.157 221.669 546.38 221.669 536.789V256.544ZM536.671 274.167H256.671V519.167L419.281 356.522C426.115 349.69 437.192 349.69 444.026 356.522L536.671 449.342V274.167ZM291.667 344.166C291.667 363.496 307.337 379.166 326.667 379.166C345.997 379.166 361.667 363.496 361.667 344.166C361.667 324.836 345.997 309.166 326.667 309.166C307.337 309.166 291.667 324.836 291.667 344.166Z" fill="#707392"/>
</g>
<g clip-path="url(#clip1_342_42)">
<path d="M1263 397H523C506.431 397 493 410.431 493 427V1167C493 1183.57 506.431 1197 523 1197H1263C1279.57 1197 1293 1183.57 1293 1167V427C1293 410.431 1279.57 397 1263 397Z" fill="#EFF1F3"/>
<path fill-rule="evenodd" clip-rule="evenodd" d="M714.669 653.544C714.735 643.981 722.466 636.243 732.029 636.167H1047.31C1056.9 636.167 1064.67 643.954 1064.67 653.544V933.789C1064.6 943.352 1056.87 951.09 1047.31 951.166H732.029C722.439 951.157 714.669 943.38 714.669 933.789V653.544ZM1029.67 671.167H749.671V916.167L912.281 753.522C919.115 746.69 930.192 746.69 937.026 753.522L1029.67 846.342V671.167ZM784.667 741.166C784.667 760.496 800.337 776.166 819.667 776.166C838.997 776.166 854.667 760.496 854.667 741.166C854.667 721.836 838.997 706.166 819.667 706.166C800.337 706.166 784.667 721.836 784.667 741.166Z" fill="#707392"/>
</g>
<defs>
<clipPath id="clip0_342_42">
<rect width="800" height="800" fill="white"/>
</clipPath>
<clipPath id="clip1_342_42">
<rect width="800" height="800" fill="white" transform="translate(493 397)"/>
</clipPath>
</defs>
</svg>
